# xmcd
#
# Track frame offsets:
#	150
#	27500
#	54982
#	82378
#	109571
#	138392
#	165147
#	197659
#	219421
#	247393
#	275601
#	303713
#	329346
#
# Disc length: 4760 seconds
#
# Revision: 2
# Processed by: cddbd v1.5PL3 Copyright (c) Steve Scherf et al.
# Submitted via: audiograbber 1.81.02
#
DISCID=c012960d
DTITLE=Arianna Huffington - Pigs at the Trough 1of5
DYEAR=2003
DGENRE=Speech
TTITLE0=Disk1Track01
TTITLE1=Disk1Track02
TTITLE2=Disk1Track03
TTITLE3=Disk1Track04
TTITLE4=Disk1Track05
TTITLE5=Disk1Track06
TTITLE6=Disk1Track07
TTITLE7=Disk1Track08
TTITLE8=Disk1Track09
TTITLE9=Disk1Track10
TTITLE10=Disk1Track11
TTITLE11=Disk1Track12
TTITLE12=Disk1Track13
EXTD=
EXTT0=
EXTT1=
EXTT2=
EXTT3=
EXTT4=
EXTT5=
EXTT6=
EXTT7=
EXTT8=
EXTT9=
EXTT10=
EXTT11=
EXTT12=
PLAYORDER=
